<?xml version="1.0" ?><!DOCTYPE svg  PUBLIC '-//W3C//DTD SVG 1.1//EN'  'http://www.w3.org/Graphics/SVG/1.1/DTD/svg11.dtd'><svg enable-background="new 0 0 128 128" id="Слой_1" version="1.1" viewBox="0 0 128 128" xml:space="preserve" xmlns="http://www.w3.org/2000/svg" xmlns:xlink="http://www.w3.org/1999/xlink"><g><circle cx="64" cy="64" fill="#BFE6F4" r="62"/><path d="M101.6,119.3l0-5.3c-0.8-1.4-74.5-1.4-75.3,0l0,5.6l0,0c0.1,3.1,4.8,5.6,12,5.6h51.3   C97.1,125.2,101.9,122.6,101.6,119.3L101.6,119.3z" fill="#D4D3EA"/><path d="M101.6,114.1c-0.8-1.4-74.5-1.4-75.3,0l0,5.6   c0.1,3.1,4.8,5.6,12,5.6h51.3c7.4,0,12.2-2.6,12-5.9L101.6,114.1z" fill="none" stroke="#62345B" stroke-miterlimit="10" stroke-width="2.5"/><g><g><path d="M89.7,119.5l-51.3,0c-8.5,0-13.6-3.4-11.5-7.3l13.4-25.4c0.8-1.4,5.1-2.6,9.8-2.6H78c4.7,0,9,1.1,9.8,2.6     l13.4,25.4C103.2,116,98.2,119.5,89.7,119.5z" fill="#ECEBEC"/></g><g><path d="M89.7,120.5H38.3c-6,0-10.7-1.7-12.4-4.4c-0.8-1.3-0.8-2.9-0.1-4.4l13.4-25.4c1.1-2.1,6.3-3.1,10.7-3.1     H78c4.4,0,9.6,1,10.7,3.1l13.4,25.4c0.8,1.5,0.7,3-0.1,4.4C100.4,118.8,95.6,120.5,89.7,120.5z M50,85.2c-5.1,0-8.5,1.3-8.9,2     l-13.4,25.4c-0.4,0.8-0.4,1.6,0,2.4c1,1.6,4.3,3.4,10.6,3.4h51.3c6.3,0,9.7-1.9,10.6-3.4c0.4-0.7,0.5-1.5,0-2.4L86.9,87.2     c-0.4-0.7-3.7-2-8.9-2H50z" fill="#62345B"/></g><g><path d="M83.9,108.8H44.1c-4.9,0-8.1-1.7-7.2-3.8l7.7-17.9c0.4-1,3.3-1.8,6.5-1.8h26c3.2,0,6.1,0.8,6.5,1.8     l7.7,17.9C92,107.1,88.8,108.8,83.9,108.8z" fill="#D4D3EA"/></g><g><path d="M83.9,109.8H44.1c-3.8,0-6.9-1-7.9-2.7c-0.5-0.8-0.6-1.7-0.2-2.5l7.7-17.9c0.8-1.9,5.1-2.4,7.5-2.4h26     c2.4,0,6.7,0.5,7.5,2.4l7.7,17.9c0.4,0.8,0.3,1.7-0.2,2.5C90.8,108.8,87.7,109.8,83.9,109.8z M51,86.4c-3.1,0-5.3,0.8-5.6,1.2     l-7.6,17.9c-0.1,0.2-0.1,0.4,0.1,0.6c0.6,0.8,2.8,1.8,6.2,1.8h39.9c3.5,0,5.7-0.9,6.2-1.8c0.1-0.2,0.2-0.4,0.1-0.6l-7.7-17.9     c-0.3-0.4-2.5-1.1-5.6-1.1H51z" fill="#62345B"/></g><g opacity="0.2"><path d="M68.2,113.8c0.1,1.2-1.8,2.1-4.2,2.1c-2.4,0-4.3-1-4.2-2.1c0.1-1.1,2-1.9,4.2-1.9S68.1,112.7,68.2,113.8z     " fill="#62345B"/></g></g><g><g opacity="0.2"><path d="M62.9,102.5c3.9,0.5,5.7-1.7,7.3-3.6l12.3-14.5c-1.3-0.2-2.8-0.3-4.2-0.3h-0.9L62.3,98.9     C60.3,100.8,60.5,102.5,62.9,102.5z" fill="#62345B"/></g><g><path d="M60.8,98.8V27h6.4v71.8c0,1.8-1.4,3.2-3.2,3.2l0,0C62.2,102,60.8,100.6,60.8,98.8z" fill="#ED9E77"/></g><g><path d="M64,103.1c-2.3,0-4.2-1.9-4.2-4.2V27c0-0.6,0.5-1,1-1h6.4c0.6,0,1,0.5,1,1v71.8     C68.2,101.2,66.3,103.1,64,103.1z M61.9,28.1v70.7c0,1.2,1,2.1,2.1,2.1s2.1-1,2.1-2.1V28.1H61.9z" fill="#62345B"/></g><g><path d="M81.9,47H48.6c-1.8,0-3.2-1.4-3.2-3.2v-9.6c0-1.8,1.4-3.2,3.2-3.2h33.2c1.2,0,2.4,0.3,3.4,1l9.5,6     c0.8,0.5,0.8,1.7,0,2.2l-9.5,5.9C84.2,46.7,83.1,47,81.9,47z" fill="#F2EDAA"/></g><g><path d="M46.1,66.2h33.3c1.8,0,3.2-1.4,3.2-3.2v-9.6c0-1.8-1.4-3.2-3.2-3.2H46.1c-1.2,0-2.4,0.3-3.4,1l-9.5,6     c-0.8,0.5-0.8,1.7,0,2.2l9.5,5.9C43.8,65.9,44.9,66.2,46.1,66.2z" fill="#F2EDAA"/></g><g><path d="M79.4,67.2H46.1c-1.4,0-2.7-0.4-3.9-1.1l-9.5-5.9c-0.7-0.4-1.1-1.2-1.1-2c0-0.8,0.4-1.5,1.1-2l9.5-6     c1.2-0.7,2.6-1.1,4-1.1h33.2c2.3,0,4.2,1.9,4.2,4.2V63C83.6,65.3,81.7,67.2,79.4,67.2z M46.1,51.3c-1,0-2,0.3-2.8,0.8l-9.5,6     c-0.1,0.1-0.1,0.1-0.1,0.2c0,0.1,0,0.1,0.1,0.2l9.5,5.9c0.8,0.5,1.8,0.8,2.8,0.8h33.3c1.2,0,2.1-1,2.1-2.1v-9.6     c0-1.2-1-2.1-2.1-2.1H46.1z" fill="#62345B"/></g><g><path d="M81.9,48.1H48.6c-2.3,0-4.2-1.9-4.2-4.2v-9.6c0-2.3,1.9-4.2,4.2-4.2h33.2c1.4,0,2.8,0.4,4,1.1l9.5,6     c0.7,0.4,1.1,1.2,1.1,2c0,0.8-0.4,1.5-1.1,2L85.8,47C84.6,47.7,83.3,48.1,81.9,48.1z M48.6,32.1c-1.2,0-2.1,1-2.1,2.1v9.6     c0,1.2,1,2.1,2.1,2.1h33.3c1,0,2-0.3,2.8-0.8l9.5-5.9c0.1-0.1,0.1-0.1,0.1-0.2c0-0.1,0-0.1-0.1-0.2l-9.5-6     c-0.9-0.5-1.8-0.8-2.8-0.8H48.6z" fill="#62345B"/></g></g></g></svg>